<?xml version="1.0" encoding="UTF-8"?><svg id="a" xmlns="http://www.w3.org/2000/svg" viewBox="0 0 261.94 261.94"><defs><style>.c,.d{fill:#fff;}.e{fill:#21325e;}.d{isolation:isolate;opacity:.7;}</style></defs><circle class="e" cx="131.95" cy="131.3" r="122"/><g id="b"><g><path class="d" d="M164.04,152.57c-.35-.86-29.68-58.96-30.15-59.75-1.54-3.7-4.25-6.94-7.98-9.14-9.11-5.34-20.82-2.28-26.16,6.83-3.67,6.25-3.38,13.72,.11,19.52,.35,.86,28.42,56.47,28.91,57.27,.35,.86,.78,1.69,1.26,2.5,1.54,3.7,4.25,6.94,7.98,9.14,9.11,5.34,20.82,2.28,26.16-6.83,3.67-6.25,3.38-13.72-.11-19.52h-.01Z"/><path class="c" d="M130.18,113.24c3.21-3.41,5.18-8.01,5.18-13.08,0-10.56-8.56-19.12-19.12-19.12-6.49,0-12.22,3.24-15.69,8.19-.63,.67-48.24,59.35-48.77,60.11-3.21,3.41-5.18,8.01-5.18,13.08,0,10.56,8.56,19.12,19.12,19.12,6.49,0,12.22-3.24,15.69-8.19,.63-.67,48.24-59.35,48.77-60.11Z"/><path class="c" d="M212.11,113.24c3.21-3.41,5.18-8.01,5.18-13.08,0-10.56-8.56-19.12-19.12-19.12-6.49,0-12.22,3.24-15.69,8.19-.63,.67-48.24,59.35-48.77,60.11-3.21,3.41-5.18,8.01-5.18,13.08,0,10.56,8.56,19.12,19.12,19.12,6.49,0,12.22-3.24,15.69-8.19,.63-.67,48.24-59.35,48.77-60.11Z"/></g></g></svg>